<svg width="50" height="50" viewBox="0 0 50 50" fill="none" xmlns="http://www.w3.org/2000/svg">
<path d="M25.2188 4.60944C21.1426 4.60944 17.158 5.81815 13.7688 8.08274C10.3796 10.3473 7.73805 13.5661 6.17818 17.3319C4.6183 21.0978 4.21017 25.2417 5.00539 29.2395C5.8006 33.2373 7.76346 36.9095 10.6457 39.7918C13.528 42.6741 17.2002 44.6369 21.1981 45.4322C25.1959 46.2274 29.3397 45.8192 33.1056 44.2594C36.8715 42.6995 40.0902 40.0579 42.3548 36.6688C44.6194 33.2796 45.8281 29.2949 45.8281 25.2188C45.8281 22.5123 45.295 19.8324 44.2593 17.3319C43.2236 14.8315 41.7055 12.5595 39.7918 10.6458C37.878 8.73202 35.6061 7.21395 33.1056 6.17823C30.6052 5.14251 27.9252 4.60944 25.2188 4.60944ZM25.2188 41.7063C21.9578 41.7063 18.7701 40.7393 16.0588 38.9276C13.3474 37.116 11.2342 34.541 9.98629 31.5283C8.73839 28.5156 8.41189 25.2005 9.04806 22.0023C9.68423 18.804 11.2545 15.8662 13.5603 13.5604C15.8661 11.2546 18.8039 9.68429 22.0022 9.04811C25.2005 8.41194 28.5155 8.73845 31.5282 9.98634C34.5409 11.2342 37.1159 13.3475 38.9276 16.0588C40.7393 18.7702 41.7062 21.9579 41.7062 25.2188C41.7062 29.5916 39.9692 33.7852 36.8772 36.8772C33.7852 39.9692 29.5915 41.7063 25.2188 41.7063Z" fill="#D3D4D3"/>
<path d="M25.2195 29.3405C27.496 29.3405 29.3414 27.4951 29.3414 25.2187C29.3414 22.9422 27.496 21.0968 25.2195 21.0968C22.9431 21.0968 21.0977 22.9422 21.0977 25.2187C21.0977 27.4951 22.9431 29.3405 25.2195 29.3405Z" fill="#D3D4D3"/>
</svg>
