<svg width="50" height="51" viewBox="0 0 50 51" fill="none" xmlns="http://www.w3.org/2000/svg">
<path d="M43.7687 15.0767C43.7687 14.5301 43.5516 14.0059 43.1651 13.6194C42.7786 13.2329 42.2544 13.0158 41.7078 13.0158C41.1612 13.0158 40.637 13.2329 40.2505 13.6194C39.864 14.0059 39.6469 14.5301 39.6469 15.0767C39.6469 18.9029 38.1269 22.5723 35.4214 25.2778C32.7159 27.9833 29.0465 29.5033 25.2203 29.5033C21.3941 29.5033 17.7247 27.9833 15.0192 25.2778C12.3137 22.5723 10.7937 18.9029 10.7937 15.0767C10.7937 14.5301 10.5766 14.0059 10.1901 13.6194C9.80361 13.2329 9.27941 13.0158 8.73281 13.0158C8.18622 13.0158 7.66201 13.2329 7.27551 13.6194C6.88901 14.0059 6.67188 14.5301 6.67188 15.0767C6.67404 19.6377 8.3566 24.038 11.3981 27.4368C14.4395 30.8356 18.6266 32.9947 23.1594 33.5015V35.6861H21.0984C20.5518 35.6861 20.0276 35.9032 19.6411 36.2897C19.2546 36.6762 19.0375 37.2004 19.0375 37.747C19.0375 38.2936 19.2546 38.8178 19.6411 39.2043C20.0276 39.5908 20.5518 39.808 21.0984 39.808H23.1594V43.9298C23.1594 44.4764 23.3765 45.0006 23.763 45.3871C24.1495 45.7736 24.6737 45.9908 25.2203 45.9908C25.7669 45.9908 26.2911 45.7736 26.6776 45.3871C27.0641 45.0006 27.2812 44.4764 27.2812 43.9298V39.808H29.3422C29.8888 39.808 30.413 39.5908 30.7995 39.2043C31.186 38.8178 31.4031 38.2936 31.4031 37.747C31.4031 37.2004 31.186 36.6762 30.7995 36.2897C30.413 35.9032 29.8888 35.6861 29.3422 35.6861H27.2812V33.5015C31.814 32.9947 36.0011 30.8356 39.0426 27.4368C42.084 24.038 43.7666 19.6377 43.7687 15.0767Z" fill="#D3D4D3"/>
<path d="M25.2187 25.3814C27.2568 25.3814 29.2491 24.777 30.9437 23.6447C32.6383 22.5125 33.9591 20.9031 34.739 19.0202C35.519 17.1372 35.723 15.0653 35.3254 13.0664C34.9278 11.0675 33.9464 9.23135 32.5053 7.79021C31.0641 6.34907 29.228 5.36765 27.2291 4.97004C25.2302 4.57243 23.1582 4.7765 21.2753 5.55644C19.3924 6.33637 17.783 7.65715 16.6507 9.35175C15.5184 11.0463 14.9141 13.0386 14.9141 15.0767C14.9141 17.8097 15.9997 20.4307 17.9322 22.3632C19.8647 24.2957 22.4858 25.3814 25.2187 25.3814ZM25.2187 8.89391C26.4416 8.89391 27.637 9.25653 28.6537 9.9359C29.6705 10.6153 30.463 11.5809 30.9309 12.7107C31.3989 13.8404 31.5213 15.0836 31.2828 16.2829C31.0442 17.4823 30.4553 18.5839 29.5907 19.4486C28.726 20.3133 27.6243 20.9022 26.425 21.1407C25.2256 21.3793 23.9824 21.2569 22.8527 20.7889C21.7229 20.3209 20.7573 19.5285 20.0779 18.5117C19.3986 17.4949 19.0359 16.2996 19.0359 15.0767C19.0359 13.4369 19.6873 11.8643 20.8468 10.7048C22.0063 9.54531 23.579 8.89391 25.2187 8.89391Z" fill="#D3D4D3"/>
</svg>
