<svg width="50" height="50" viewBox="0 0 50 50" fill="none" xmlns="http://www.w3.org/2000/svg">
<path d="M4.60941 38.2598C4.60941 40.1729 5.36938 42.0076 6.72213 43.3603C8.07488 44.7131 9.90961 45.4731 11.8227 45.4731C13.7358 45.4731 15.5705 44.7131 16.9232 43.3603C18.276 42.0076 19.036 40.1729 19.036 38.2598C19.0303 37.6621 18.9542 37.0672 18.8093 36.4874C18.7212 36.144 18.611 35.8067 18.4795 35.4775C18.4795 35.4775 18.3765 35.2714 18.3146 35.1478L18.0055 34.5501L17.7582 34.1997L17.4078 33.7051L17.1193 33.3754L16.6865 32.9426L16.3567 32.6746C16.208 32.5396 16.0496 32.4156 15.8827 32.3037L15.5118 32.077C15.3404 31.9619 15.1614 31.8586 14.9759 31.7678L14.605 31.603L13.9455 31.3763L13.6157 31.2732L13.5127 31.2732C11.7137 28.8104 10.7594 25.8318 10.7922 22.7822C10.7922 18.956 12.3122 15.2865 15.0177 12.581C17.7232 9.87554 21.3926 8.3556 25.2188 8.3556C29.0449 8.3556 32.7144 9.87554 35.4199 12.581C38.1254 15.2865 39.6453 18.956 39.6453 22.7822C39.6692 25.8178 38.7154 28.7805 36.9249 31.232L36.5951 31.335L35.9356 31.5617L35.5235 31.7678L34.967 32.077L34.6166 32.3037C34.4285 32.413 34.2493 32.537 34.0808 32.6746L33.7511 32.9426L33.3183 33.3754L33.0297 33.7051L32.6588 34.1997C32.5905 34.3211 32.5148 34.4381 32.4321 34.5501C32.3137 34.741 32.2103 34.9408 32.1229 35.1478C32.06 35.2464 32.0049 35.3497 31.958 35.4569C31.8265 35.7861 31.7164 36.1234 31.6283 36.4668C31.4817 37.0533 31.4056 37.6552 31.4016 38.2598C31.3987 39.5609 31.7478 40.8387 32.4119 41.9576C33.076 43.0765 34.0304 43.9949 35.174 44.6156C36.3176 45.2363 37.6078 45.536 38.9079 45.4832C40.208 45.4303 41.4696 45.0268 42.559 44.3153C43.6484 43.6039 44.5251 42.611 45.0962 41.4418C45.6673 40.2727 45.9115 38.9709 45.803 37.6742C45.6945 36.3776 45.2372 35.1345 44.4797 34.0765C43.7223 33.0186 42.6927 32.1853 41.5002 31.6648C42.8542 29.1838 43.6234 26.4262 43.7489 23.6025C43.8744 20.7789 43.353 17.9639 42.2244 15.3725C41.0958 12.7812 39.3899 10.482 37.237 8.65066C35.0842 6.81929 32.5412 5.50415 29.8025 4.80568C27.0637 4.10721 24.2015 4.04389 21.4345 4.62054C18.6675 5.1972 16.0689 6.39858 13.8371 8.13294C11.6054 9.86729 9.79947 12.0887 8.55737 14.6276C7.31528 17.1665 6.66984 19.9557 6.67035 22.7822C6.66817 25.8799 7.44793 28.928 8.93738 31.6442C7.64871 32.2037 6.55213 33.1284 5.783 34.3041C5.01388 35.4797 4.60589 36.8549 4.60941 38.2598ZM38.6149 41.3306C37.7985 41.3306 37.0153 41.0077 36.4362 40.4324C35.857 39.8571 35.5289 39.0761 35.5235 38.2598C35.496 37.9995 35.496 37.737 35.5235 37.4766C35.6637 36.8754 35.9831 36.3309 36.4394 35.9151C36.8957 35.4993 37.4674 35.2317 38.079 35.1478L38.6149 35.1478C39.4348 35.1478 40.2211 35.4735 40.8008 36.0532C41.3806 36.633 41.7063 37.4193 41.7063 38.2392C41.7063 39.0591 41.3806 39.8454 40.8008 40.4251C40.2211 41.0049 39.4348 41.3306 38.6149 41.3306ZM11.8227 41.3306C11.0028 41.3306 10.2165 41.0049 9.63674 40.4251C9.05699 39.8454 8.73128 39.0591 8.73128 38.2392C8.73128 37.4193 9.05699 36.633 9.63674 36.0532C10.2165 35.4735 11.0028 35.1478 11.8227 35.1478L12.173 35.1478C12.41 35.1766 12.6401 35.2463 12.8532 35.3539L13.1417 35.3539C13.3415 35.4462 13.5285 35.564 13.6981 35.7042C13.7809 35.7399 13.8575 35.7886 13.9248 35.8485C14.0975 36.0077 14.2498 36.1877 14.3782 36.3843L14.5019 36.5286C14.6671 36.7975 14.7921 37.0891 14.8729 37.3942C14.9202 37.6801 14.934 37.9706 14.9141 38.2598C14.9087 39.0761 14.5806 39.8571 14.0014 40.4324C13.4222 41.0077 12.639 41.3306 11.8227 41.3306Z" fill="#D3D4D3"/>
</svg>
