<svg width="50" height="51" viewBox="0 0 50 51" fill="none" xmlns="http://www.w3.org/2000/svg">
<path d="M30.2664 24.9094C30.6162 25.2473 31.0848 25.4343 31.5711 25.4301C32.0574 25.4258 32.5226 25.2308 32.8666 24.8869C33.2105 24.5429 33.4055 24.0777 33.4097 23.5914C33.414 23.1051 33.227 22.6365 32.8891 22.2867L25.7802 15.1777L32.8891 8.06995C33.2371 7.72215 33.4327 7.25037 33.4328 6.75839C33.4329 6.26641 33.2376 5.79454 32.8898 5.44658C32.542 5.09862 32.0702 4.90307 31.5782 4.90295C31.0862 4.90284 30.6144 5.09816 30.2664 5.44596L25.0122 10.7001V6.75795C25.0122 6.26602 24.8168 5.79423 24.469 5.44638C24.1211 5.09853 23.6493 4.90311 23.1574 4.90311C22.6655 4.90311 22.1937 5.09853 21.8458 5.44638C21.498 5.79423 21.3026 6.26602 21.3026 6.75795V31.4323C16.4577 32.0296 12.8828 34.9207 12.8828 38.5116C12.8828 42.5478 17.3963 45.7096 23.1574 45.7096C28.9185 45.7096 33.432 42.5478 33.432 38.5116C33.432 34.9256 29.8571 32.0296 25.0122 31.4323V19.6553L30.2664 24.9094ZM29.7223 38.5116C29.7223 40.1587 26.9153 42 23.1574 42C19.3995 42 16.5925 40.1587 16.5925 38.5116C16.5925 36.8645 19.3995 35.0233 23.1574 35.0233C26.9153 35.0233 29.7223 36.8658 29.7223 38.5116Z" fill="#D3D4D3"/>
</svg>
