<svg width="50" height="50" viewBox="0 0 50 50" fill="none" xmlns="http://www.w3.org/2000/svg">
<path d="M25.2197 4.36548C19.808 4.36548 14.6179 6.51596 10.7925 10.3415C6.96704 14.1671 4.81641 19.3571 4.81641 24.7688C4.81641 30.1804 6.96689 35.3705 10.7925 39.196C14.618 43.0214 19.808 45.172 25.2197 45.172C30.6314 45.172 35.8215 43.0215 39.6469 39.196C43.4723 35.3704 45.623 30.1804 45.623 24.7688C45.6172 19.3585 43.4648 14.1729 39.639 10.3494C35.8153 6.52382 30.6294 4.37141 25.2197 4.36548ZM41.8049 22.9139H27.0745V8.18349C30.8345 8.61049 34.3396 10.2991 37.0135 12.9752C39.6895 15.6492 41.3782 19.154 41.8052 22.9142L41.8049 22.9139ZM23.3648 8.18349V22.9139H8.63441C9.06141 19.154 10.7501 15.6489 13.4261 12.9749C16.1001 10.2989 19.6049 8.61025 23.3651 8.18324L23.3648 8.18349ZM8.63441 26.6236H23.3648V41.354C19.6049 40.927 16.0998 39.2384 13.4258 36.5623C10.7498 33.8883 9.06118 30.3835 8.63417 26.6233L8.63441 26.6236ZM27.0745 41.354V26.6236H41.8049C41.3779 30.3835 39.6893 33.8886 37.0133 36.5626C34.3392 39.2386 30.8344 40.9273 27.0743 41.3543L27.0745 41.354Z" fill="#D3D4D3"/>
</svg>
