<svg width="50" height="50" viewBox="0 0 50 50" fill="none" xmlns="http://www.w3.org/2000/svg">
<path d="M35.1141 30.0781C29.6237 28.4953 25.7657 23.4007 25.7657 17.7125C25.7657 12.0243 29.6237 6.88023 35.1141 5.3469C35.7571 5.14905 36.2023 4.60496 36.2023 3.91248C36.2023 3.22001 35.7571 2.62646 35.1141 2.47807C33.6797 2.08237 32.2453 1.88452 30.7614 1.88452C22.0065 1.88452 14.8839 9.00712 14.8839 17.762C14.8839 23.9943 18.4947 29.3857 23.6883 31.9577V37.1018H15.8237C14.9829 37.1018 14.3398 37.7448 14.3398 38.5857C14.3398 39.4265 14.9829 40.0696 15.8237 40.0696H23.7377V47.4889C23.7377 48.3298 24.3807 48.9728 25.2216 48.9728C26.0625 48.9728 26.7055 48.3298 26.7055 47.4889V40.0696H34.1248C34.9657 40.0696 35.6087 39.4265 35.6087 38.5857C35.6087 37.7448 34.9657 37.1018 34.1248 37.1018H26.7055V33.0459C27.9915 33.3921 29.3764 33.59 30.7614 33.59C32.2453 33.59 33.6797 33.3921 35.1141 32.9964C35.7571 32.7986 36.2023 32.2545 36.2023 31.562C36.2023 30.8695 35.7571 30.276 35.1141 30.0781ZM17.9011 17.7125C17.9011 11.0845 22.9463 5.59421 29.3764 4.90173C25.37 7.82002 22.8474 12.5684 22.8474 17.7125C22.8474 22.8566 25.37 27.605 29.3764 30.5233C22.8969 29.7814 17.9011 24.3405 17.9011 17.7125Z" fill="#D3D4D3"/>
</svg>
