<svg width="50" height="51" viewBox="0 0 50 51" fill="none" xmlns="http://www.w3.org/2000/svg">
<path d="M39.6461 19.5108C39.6461 15.6846 38.1261 12.0152 35.4206 9.30967C32.7151 6.60416 29.0457 5.08423 25.2195 5.08423C21.3934 5.08423 17.7239 6.60416 15.0184 9.30967C12.3129 12.0152 10.793 15.6846 10.793 19.5108C10.793 20.0574 11.0101 20.5816 11.3966 20.9681C11.7831 21.3546 12.3073 21.5717 12.8539 21.5717C13.4005 21.5717 13.9247 21.3546 14.3112 20.9681C14.6977 20.5816 14.9148 20.0574 14.9148 19.5108C14.9148 17.4727 15.5192 15.4804 16.6515 13.7858C17.7838 12.0912 19.3932 10.7704 21.2761 9.9905C23.159 9.21056 25.231 9.00649 27.2299 9.4041C29.2288 9.80171 31.0649 10.7831 32.506 12.2243C33.9472 13.6654 34.9286 15.5015 35.3262 17.5004C35.7238 19.4994 35.5197 21.5713 34.7398 23.4542C33.9599 25.3371 32.6391 26.9465 30.9445 28.0788C29.2499 29.2111 27.2576 29.8155 25.2195 29.8155C24.6729 29.8155 24.1487 30.0326 23.7622 30.4191C23.3757 30.8056 23.1586 31.3298 23.1586 31.8764V35.9983H21.0977C20.5511 35.9983 20.0268 36.2154 19.6403 36.6019C19.2538 36.9884 19.0367 37.5126 19.0367 38.0592C19.0367 38.6058 19.2538 39.13 19.6403 39.5165C20.0268 39.903 20.5511 40.1201 21.0977 40.1201H23.1586V44.242C23.1586 44.7886 23.3757 45.3128 23.7622 45.6993C24.1487 46.0858 24.6729 46.303 25.2195 46.303C25.7661 46.303 26.2903 46.0858 26.6768 45.6993C27.0633 45.3128 27.2805 44.7886 27.2805 44.242V40.1201H29.3414C29.888 40.1201 30.4122 39.903 30.7987 39.5165C31.1852 39.13 31.4023 38.6058 31.4023 38.0592C31.4023 37.5126 31.1852 36.9884 30.7987 36.6019C30.4122 36.2154 29.888 35.9983 29.3414 35.9983H27.2805V33.7725C30.7111 33.2773 33.8488 31.5635 36.1194 28.9447C38.3901 26.3258 39.642 22.977 39.6461 19.5108Z" fill="#D3D4D3"/>
</svg>
