<svg width="50" height="50" viewBox="0 0 50 50" fill="none" xmlns="http://www.w3.org/2000/svg">
<path d="M34.926 16.3146C35.1192 16.123 35.2725 15.895 35.3771 15.6439C35.4817 15.3927 35.5356 15.1234 35.5356 14.8513C35.5356 14.5792 35.4817 14.3099 35.3771 14.0587C35.2725 13.8076 35.1192 13.5796 34.926 13.388L26.6822 5.14429C26.4907 4.95112 26.2627 4.7978 26.0116 4.69317C25.7604 4.58854 25.491 4.53467 25.219 4.53467C24.9469 4.53467 24.6775 4.58854 24.4264 4.69317C24.1752 4.7978 23.9473 4.95112 23.7557 5.14429L15.512 13.388C15.3188 13.5796 15.1655 13.8076 15.0608 14.0587C14.9562 14.3099 14.9023 14.5792 14.9023 14.8513C14.9023 15.1234 14.9562 15.3927 15.0608 15.6439C15.1655 15.895 15.3188 16.123 15.512 16.3146L23.158 23.94V35.4607H19.0362C18.4896 35.4607 17.9654 35.6778 17.5789 36.0643C17.1924 36.4508 16.9752 36.975 16.9752 37.5216C16.9752 38.0682 17.1924 38.5924 17.5789 38.9789C17.9654 39.3654 18.4896 39.5825 19.0362 39.5825H23.158V43.7044C23.158 44.251 23.3752 44.7752 23.7617 45.1617C24.1482 45.5482 24.6724 45.7654 25.219 45.7654C25.7656 45.7654 26.2898 45.5482 26.6763 45.1617C27.0628 44.7752 27.2799 44.251 27.2799 43.7044V39.5825H31.4018C31.9484 39.5825 32.4726 39.3654 32.8591 38.9789C33.2456 38.5924 33.4627 38.0682 33.4627 37.5216C33.4627 36.975 33.2456 36.4508 32.8591 36.0643C32.4726 35.6778 31.9484 35.4607 31.4018 35.4607H27.2799V23.94L34.926 16.3146ZM25.219 9.51347L30.5568 14.8513L25.219 20.1891L19.8812 14.8513L25.219 9.51347Z" fill="#D3D4D3"/>
</svg>
