<svg width="50" height="51" viewBox="0 0 50 51" fill="none" xmlns="http://www.w3.org/2000/svg">
<path d="M37.5851 15.314H30.5574L35.7509 10.5739C35.9699 10.398 36.1507 10.1792 36.2821 9.93086C36.4135 9.68257 36.4927 9.41003 36.5149 9.13C36.5372 8.84997 36.5019 8.56834 36.4113 8.30243C36.3208 8.03652 36.1768 7.79193 35.9882 7.58369C35.7997 7.37545 35.5706 7.20795 35.3149 7.09148C35.0593 6.97501 34.7826 6.91204 34.5017 6.90642C34.2208 6.9008 33.9418 6.95265 33.6817 7.0588C33.4216 7.16495 33.186 7.32315 32.9893 7.52368L27.2805 12.7172V7.07027C27.2805 6.52368 27.0633 5.99947 26.6768 5.61297C26.2903 5.22647 25.7661 5.00934 25.2195 5.00934C24.6729 5.00934 24.1487 5.22647 23.7622 5.61297C23.3757 5.99947 23.1586 6.52368 23.1586 7.07027V12.7172L17.4498 7.52368C17.0401 7.19465 16.5201 7.03456 15.9963 7.07613C15.4724 7.11771 14.9843 7.35781 14.6316 7.74736C14.2789 8.1369 14.0883 8.64646 14.0988 9.17184C14.1093 9.69722 14.3201 10.1987 14.6881 10.5739L19.8817 15.314H12.8539C12.3073 15.314 11.7831 15.5312 11.3966 15.9177C11.0101 16.3042 10.793 16.8284 10.793 17.375C10.793 17.9216 11.0101 18.4458 11.3966 18.8323C11.7831 19.2188 12.3073 19.4359 12.8539 19.4359H19.8817L14.6881 24.176C14.4088 24.4603 14.2179 24.8194 14.1385 25.2099C14.059 25.6004 14.0945 26.0056 14.2407 26.3763C14.3868 26.7471 14.6372 27.0675 14.9617 27.2988C15.2862 27.5301 15.6708 27.6624 16.069 27.6796C16.5797 27.6783 17.0718 27.4873 17.4498 27.1438L23.1586 22.0327V35.9234H21.0977C20.5511 35.9234 20.0268 36.1405 19.6403 36.527C19.2538 36.9135 19.0367 37.4377 19.0367 37.9843C19.0367 38.5309 19.2538 39.0551 19.6403 39.4416C20.0268 39.8281 20.5511 40.0453 21.0977 40.0453H23.1586V44.1671C23.1586 44.7137 23.3757 45.2379 23.7622 45.6244C24.1487 46.0109 24.6729 46.2281 25.2195 46.2281C25.7661 46.2281 26.2903 46.0109 26.6768 45.6244C27.0633 45.2379 27.2805 44.7137 27.2805 44.1671V40.0453H29.3414C29.888 40.0453 30.4122 39.8281 30.7987 39.4416C31.1852 39.0551 31.4023 38.5309 31.4023 37.9843C31.4023 37.4377 31.1852 36.9135 30.7987 36.527C30.4122 36.1405 29.888 35.9234 29.3414 35.9234H27.2805V22.0327L32.9893 27.2262C33.3672 27.5698 33.8593 27.7607 34.3701 27.7621C34.7856 27.761 35.1911 27.6343 35.5334 27.3987C35.8756 27.1631 36.1387 26.8295 36.288 26.4417C36.4373 26.0539 36.4659 25.6301 36.3701 25.2258C36.2742 24.8214 36.0584 24.4555 35.7509 24.176L30.5574 19.4359H37.5851C38.1317 19.4359 38.6559 19.2188 39.0424 18.8323C39.4289 18.4458 39.6461 17.9216 39.6461 17.375C39.6461 16.8284 39.4289 16.3042 39.0424 15.9177C38.6559 15.5312 38.1317 15.314 37.5851 15.314Z" fill="#D3D4D3"/>
</svg>
