<svg width="50" height="50" viewBox="0 0 50 50" fill="none" xmlns="http://www.w3.org/2000/svg">
<path d="M43.7672 29.2032H37.5844C37.3131 29.2017 37.0443 29.2536 36.7931 29.3562C36.542 29.4588 36.3137 29.6099 36.1211 29.8009L25.2187 40.7239L14.3164 29.8009C14.1238 29.6099 13.8954 29.4588 13.6443 29.3562C13.3932 29.2536 13.1244 29.2017 12.8531 29.2032H6.67031C6.12372 29.2032 5.59951 29.4204 5.21301 29.8069C4.82651 30.1934 4.60938 30.7176 4.60938 31.2642C4.60938 31.8108 4.82651 32.335 5.21301 32.7215C5.59951 33.108 6.12372 33.3251 6.67031 33.3251H12.0081L23.7555 45.093C23.9471 45.2862 24.175 45.4395 24.4262 45.5442C24.6773 45.6488 24.9467 45.7027 25.2187 45.7027C25.4908 45.7027 25.7602 45.6488 26.0113 45.5442C26.2625 45.4395 26.4904 45.2862 26.682 45.093L38.4293 33.3251H43.7672C44.3138 33.3251 44.838 33.108 45.2245 32.7215C45.611 32.335 45.8281 31.8108 45.8281 31.2642C45.8281 30.7176 45.611 30.1934 45.2245 29.8069C44.838 29.4204 44.3138 29.2032 43.7672 29.2032Z" fill="#D3D4D3"/>
<path d="M23.7569 36.8497C23.9485 37.0428 24.1764 37.1962 24.4276 37.3008C24.6787 37.4054 24.9481 37.4593 25.2201 37.4593C25.4922 37.4593 25.7616 37.4054 26.0127 37.3008C26.2639 37.1962 26.4918 37.0428 26.6834 36.8497L39.049 24.484C39.2412 24.2919 39.3936 24.0638 39.4976 23.8127C39.6016 23.5616 39.6551 23.2925 39.6551 23.0208C39.6551 22.749 39.6016 22.4799 39.4976 22.2289C39.3936 21.9778 39.2412 21.7497 39.049 21.5575C38.8569 21.3654 38.6287 21.2129 38.3777 21.1089C38.1266 21.0049 37.8575 20.9514 37.5858 20.9514C37.314 20.9514 37.0449 21.0049 36.7939 21.1089C36.5428 21.2129 36.3147 21.3654 36.1225 21.5575L25.2201 32.4805L14.3178 21.5575C13.9297 21.1694 13.4034 20.9514 12.8545 20.9514C12.3057 20.9514 11.7793 21.1694 11.3913 21.5575C11.0032 21.9456 10.7852 22.472 10.7852 23.0208C10.7852 23.5696 11.0032 24.096 11.3913 24.484L23.7569 36.8497Z" fill="#D3D4D3"/>
<path d="M25.218 16.8375C25.7646 16.8375 26.2888 17.0547 26.6753 17.4412C27.0618 17.8277 27.2789 18.3519 27.2789 18.8985C27.2789 19.4451 27.0618 19.9693 26.6753 20.3558C26.2888 20.7423 25.7646 20.9594 25.218 20.9594C24.6714 20.9594 24.1472 21.1765 23.7607 21.563C23.3742 21.9496 23.157 22.4738 23.157 23.0204C23.157 23.5669 23.3742 24.0912 23.7607 24.4777C24.1472 24.8642 24.6714 25.0813 25.218 25.0813C26.8577 25.0813 28.4304 24.4299 29.5899 23.2704C30.7494 22.1109 31.4008 20.5383 31.4008 18.8985C31.4008 17.2587 30.7494 15.6861 29.5899 14.5266C28.4304 13.3671 26.8577 12.7157 25.218 12.7157C24.6714 12.7157 24.1472 12.4985 23.7607 12.112C23.3742 11.7255 23.157 11.2013 23.157 10.6547C23.157 10.1081 23.3742 9.58393 23.7607 9.19743C24.1472 8.81093 24.6714 8.5938 25.218 8.5938C25.7646 8.5938 26.2888 8.37666 26.6753 7.99016C27.0618 7.60366 27.2789 7.07945 27.2789 6.53286C27.2789 5.98627 27.0618 5.46206 26.6753 5.07556C26.2888 4.68906 25.7646 4.47192 25.218 4.47192C23.5782 4.47192 22.0056 5.12333 20.8461 6.28283C19.6866 7.44233 19.0352 9.01495 19.0352 10.6547C19.0352 12.2945 19.6866 13.8671 20.8461 15.0266C22.0056 16.1861 23.5782 16.8375 25.218 16.8375Z" fill="#D3D4D3"/>
</svg>
