<svg width="50" height="51" viewBox="0 0 50 51" fill="none" xmlns="http://www.w3.org/2000/svg">
<path d="M39.6461 19.3604C39.6493 16.5944 38.8573 13.8857 37.3644 11.5572C35.8716 9.22863 33.7407 7.37833 31.2259 6.22673C28.711 5.07513 25.918 4.67078 23.1798 5.06186C20.4416 5.45294 17.8735 6.62295 15.7815 8.43251C13.6895 10.2421 12.1619 12.6149 11.3805 15.2682C10.5992 17.9216 10.5971 20.7437 11.3745 23.3982C12.1519 26.0527 13.676 28.4278 15.7653 30.2404C17.8546 32.0531 20.4209 33.2269 23.1586 33.6221V39.1248L20.5 36.4456C20.3078 36.2534 20.0797 36.101 19.8286 35.997C19.5776 35.893 19.3085 35.8395 19.0367 35.8395C18.765 35.8395 18.4959 35.893 18.2448 35.997C17.9937 36.101 17.7656 36.2534 17.5734 36.4456C17.3813 36.6377 17.2289 36.8658 17.1249 37.1169C17.0209 37.368 16.9673 37.6371 16.9673 37.9088C16.9673 38.1806 17.0209 38.4497 17.1249 38.7007C17.2289 38.9518 17.3813 39.1799 17.5734 39.3721L23.7562 45.5549C23.9325 45.7275 24.1432 45.8609 24.3745 45.9465C24.6383 46.0745 24.9264 46.1448 25.2195 46.1526C25.4866 46.1464 25.7509 46.0977 26.0027 46.0083C26.2531 45.8963 26.483 45.743 26.6828 45.5549L32.8656 39.3721C33.2537 38.984 33.4717 38.4577 33.4717 37.9088C33.4717 37.36 33.2537 36.8336 32.8656 36.4456C32.4775 36.0575 31.9512 35.8395 31.4023 35.8395C30.8535 35.8395 30.3271 36.0575 29.9391 36.4456L27.2805 39.1248V33.6221C30.7111 33.1269 33.8488 31.4131 36.1194 28.7943C38.3901 26.1754 39.642 22.8266 39.6461 19.3604ZM14.9148 19.3604C14.9148 17.3223 15.5192 15.33 16.6515 13.6354C17.7838 11.9408 19.3931 10.6201 21.2761 9.84011C23.159 9.06018 25.2309 8.85611 27.2299 9.25372C29.2288 9.65133 31.0649 10.6328 32.506 12.0739C33.9472 13.515 34.9286 15.3511 35.3262 17.3501C35.7238 19.349 35.5197 21.4209 34.7398 23.3038C33.9599 25.1868 32.6391 26.7961 30.9445 27.9284C29.2499 29.0607 27.2576 29.6651 25.2195 29.6651C22.4865 29.6651 19.8655 28.5794 17.933 26.6469C16.0005 24.7144 14.9148 22.0934 14.9148 19.3604Z" fill="#D3D4D3"/>
</svg>
