<svg width="50" height="51" viewBox="0 0 50 51" fill="none" xmlns="http://www.w3.org/2000/svg">
<g clip-path="url(#clip0_1242_552)">
<path d="M11.5989 10.2422C11.2212 10.5699 10.9756 11.0239 10.9078 11.5194C10.84 12.0149 10.9547 12.5181 11.2305 12.9353C11.4912 13.3514 11.892 13.6607 12.3605 13.8076C12.8291 13.9544 13.3347 13.9292 13.7863 13.7363C15.6958 12.9439 17.7858 12.6888 19.8299 12.9987C21.874 13.3086 23.7945 14.1716 25.3834 15.4945C26.9723 16.8173 28.1692 18.5495 28.8444 20.5036C29.5197 22.4577 29.6477 24.5592 29.2145 26.5808C28.7813 28.6024 27.8034 30.467 26.3868 31.9728C24.9701 33.4787 23.1685 34.5684 21.1771 35.124C19.1857 35.6796 17.0802 35.6799 15.0886 35.125C13.097 34.5701 11.2951 33.4811 9.87785 31.9758C9.58091 31.5169 9.11383 31.1947 8.57937 31.0802C8.04491 30.9657 7.48684 31.0681 7.02794 31.3651C6.56904 31.662 6.24689 32.1291 6.13236 32.6635C6.01783 33.198 6.12031 33.7561 6.41725 34.215C6.85199 35.1377 7.35377 36.0272 7.91855 36.8766C10.1329 40.2988 13.3124 42.9875 17.0548 44.6027C20.7973 46.2179 24.9347 46.6871 28.9438 45.9509C32.9529 45.2147 36.6537 43.3062 39.5781 40.4667C42.5026 37.6273 44.5194 33.9844 45.3734 29.9987C46.2275 26.013 45.8805 21.8636 44.3763 18.0752C42.8721 14.2867 40.2783 11.0294 36.9228 8.71507C33.5674 6.40077 29.601 5.13345 25.5253 5.07336C21.4496 5.01327 17.4476 6.16312 14.0254 8.3775C13.1721 8.93886 12.3611 9.56209 11.5989 10.2422ZM39.0639 16.7236C41.1212 19.8945 42.0265 23.6761 41.6282 27.4349C41.2299 31.1938 39.5521 34.7016 36.8759 37.3709C34.1996 40.0402 30.6875 41.7089 26.9277 42.0975C23.1678 42.4862 19.3886 41.5711 16.223 39.5056C20.0686 40.0005 23.9598 39.032 27.1248 36.7923C30.2898 34.5525 32.4975 31.205 33.3099 27.4137C34.1223 23.6224 33.4801 19.6642 31.5108 16.3242C29.5414 12.9842 26.3887 10.5064 22.678 9.38208C25.8266 8.89141 29.0499 9.32369 31.958 10.6266C34.8661 11.9295 37.3342 14.0473 39.0639 16.7236Z" fill="#D3D4D3"/>
</g>
<defs>
<clipPath id="clip0_1242_552">
<rect width="49.4625" height="49.4625" fill="white" transform="translate(0.488281 0.950195)"/>
</clipPath>
</defs>
</svg>
