<svg width="50" height="50" viewBox="0 0 50 50" fill="none" xmlns="http://www.w3.org/2000/svg">
<path fill-rule="evenodd" clip-rule="evenodd" d="M18.7768 6.10958C19.528 6.09786 20.1921 6.59547 20.3919 7.31972L29.3547 39.8137C29.5968 40.6915 29.0815 41.5994 28.2037 41.8415C27.3259 42.0836 26.418 41.5683 26.1759 40.6905L23.2105 29.9398H15.1191L12.5237 40.6407C12.3091 41.5256 11.4177 42.069 10.5328 41.8544C9.64788 41.6398 9.1045 40.7484 9.31913 39.8635L11.726 29.9398H8.93C8.01942 29.9398 7.28125 29.2016 7.28125 28.2911C7.28125 27.3805 8.01942 26.6423 8.93 26.6423H12.5258L17.2002 7.36951C17.3773 6.63938 18.0256 6.12129 18.7768 6.10958ZM15.9189 26.6423H22.301L18.905 14.3304L15.9189 26.6423Z" fill="#D3D4D3"/>
<path fill-rule="evenodd" clip-rule="evenodd" d="M29.226 13.3967C27.5609 16.0349 26.4772 19.7812 26.4772 24.0051C26.4772 28.229 27.5609 31.9753 29.226 34.6135C30.9043 37.2729 33.0164 38.6033 35.0821 38.6033C36.8613 38.6033 38.6609 37.6258 40.2097 35.6503C40.7715 34.9336 41.8078 34.8081 42.5245 35.3699C43.2411 35.9317 43.3666 36.9681 42.8048 37.6847C40.8376 40.194 38.1679 41.9008 35.0821 41.9008C31.4848 41.9008 28.4701 39.5942 26.4374 36.3734C24.3913 33.1314 23.1797 28.7541 23.1797 24.0051C23.1797 19.2561 24.3913 14.8788 26.4374 11.6368C28.4701 8.41599 31.4848 6.10938 35.0821 6.10938C37.829 6.10938 40.2548 7.46635 42.1375 9.53502C42.7504 10.2085 42.7013 11.2512 42.0279 11.8641C41.3545 12.477 40.3117 12.4279 39.6988 11.7545C38.2686 10.183 36.672 9.40687 35.0821 9.40687C33.0164 9.40687 30.9043 10.7373 29.226 13.3967Z" fill="#D3D4D3"/>
</svg>
