<svg width="50" height="51" viewBox="0 0 50 51" fill="none" xmlns="http://www.w3.org/2000/svg">
<path d="M38.9133 6.40491C35.3951 6.40491 32.2002 8.61965 30.0098 12.0897C28.6479 14.246 27.6884 16.8081 27.1553 19.5628L24.2459 8.76025C24.0395 7.99677 23.3517 7.46368 22.5607 7.45681C21.7594 7.44993 21.0544 7.98643 20.8446 8.76025L17.7563 20.2328L14.6681 8.76025C14.4617 7.99677 13.7739 7.46368 12.9829 7.45681C12.1816 7.44993 11.4766 7.98643 11.2668 8.76025L2.61755 40.8914C2.49031 41.3454 2.54533 41.8303 2.77918 42.2395C3.01304 42.6522 3.39821 42.9514 3.85222 43.0718C4.30961 43.1956 4.79451 43.1302 5.20029 42.8929C5.6061 42.6557 5.90187 42.2636 6.01879 41.8062L12.9691 15.9892L15.9336 27.0048L12.1953 40.8914C12.0647 41.3454 12.1231 41.8303 12.357 42.2395C12.5908 42.6487 12.976 42.9514 13.43 43.0718C13.8874 43.1956 14.3723 43.1302 14.7781 42.8929C15.1839 42.6556 15.4797 42.2636 15.5966 41.8062L17.7597 33.7759L19.9229 41.8062H19.9194C20.0364 42.2636 20.3287 42.6556 20.7345 42.8929C21.1437 43.1302 21.6286 43.1956 22.0826 43.0718C22.54 42.9514 22.9251 42.6522 23.159 42.2395C23.3895 41.8303 23.4479 41.3454 23.3207 40.8914L19.5824 27.0048L22.5469 15.9892L29.4972 41.8062C29.6107 42.2636 29.9065 42.6556 30.3123 42.8929C30.7215 43.1302 31.2064 43.1956 31.6604 43.0718C32.1143 42.9514 32.5029 42.6522 32.7368 42.2395C32.9672 41.8303 33.0257 41.3454 32.8985 40.8914L32.8675 40.7779C34.6455 42.2705 36.7158 43.1337 38.9134 43.1337C42.4316 43.1337 45.6265 40.919 47.8169 37.449C48.0749 37.0569 48.1608 36.5754 48.0611 36.1146C47.9614 35.6538 47.6794 35.2514 47.2804 35.0004C46.8815 34.7494 46.4 34.6668 45.9392 34.7734C45.4818 34.88 45.0863 35.1689 44.8387 35.5713C43.0985 38.3294 40.956 39.6122 38.9132 39.6122C36.8704 39.6122 34.7278 38.326 32.9876 35.5713C31.2474 32.8132 30.1882 28.8788 30.1882 24.7723C30.1882 20.6625 31.2474 16.7317 32.9876 13.9732C34.7278 11.2151 36.8704 9.93236 38.9132 9.93236C40.956 9.93236 43.0985 11.2185 44.8387 13.9732V13.9698C45.0863 14.3722 45.4818 14.6576 45.9392 14.7642C46.4001 14.8708 46.8815 14.7917 47.2804 14.5407C47.6794 14.2862 47.9614 13.8872 48.0611 13.4264C48.1608 12.9656 48.0748 12.4841 47.8169 12.0887C45.6262 8.61864 42.4312 6.40491 38.9133 6.40491Z" fill="#D3D4D3"/>
</svg>
