<svg width="50" height="50" viewBox="0 0 50 50" fill="none" xmlns="http://www.w3.org/2000/svg">
<path d="M25.2187 4.3219C21.1426 4.3219 17.158 5.53062 13.7688 7.7952C10.3796 10.0598 7.73805 13.2785 6.17818 17.0444C4.6183 20.8103 4.21017 24.9541 5.00539 28.952C5.8006 32.9498 7.76346 36.622 10.6457 39.5043C13.528 42.3866 17.2002 44.3494 21.1981 45.1446C25.1959 45.9398 29.3397 45.5317 33.1056 43.9718C36.8715 42.412 40.0902 39.7704 42.3548 36.3812C44.6194 32.992 45.8281 29.0074 45.8281 24.9313C45.8281 22.2248 45.295 19.5448 44.2593 17.0444C43.2236 14.544 41.7055 12.272 39.7918 10.3582C37.878 8.44449 35.6061 6.92641 33.1056 5.89069C30.6052 4.85498 27.9252 4.3219 25.2187 4.3219V4.3219ZM25.2187 41.4188C21.9578 41.4188 18.7701 40.4518 16.0588 38.6401C13.3474 36.8284 11.2342 34.2534 9.98629 31.2408C8.73839 28.2281 8.41189 24.913 9.04806 21.7147C9.68423 18.5165 11.2545 15.5787 13.5603 13.2728C15.8661 10.967 18.8039 9.39675 22.0022 8.76058C25.2005 8.1244 28.5155 8.45091 31.5282 9.69881C34.5409 10.9467 37.1159 13.06 38.9276 15.7713C40.7393 18.4827 41.7062 21.6703 41.7062 24.9313C41.7062 29.304 39.9692 33.4977 36.8772 36.5897C33.7852 39.6817 29.5915 41.4188 25.2187 41.4188V41.4188Z" fill="#D3D4D3"/>
<path d="M25.2195 29.0531C27.496 29.0531 29.3414 27.2076 29.3414 24.9312C29.3414 22.6548 27.496 20.8093 25.2195 20.8093C22.9431 20.8093 21.0977 22.6548 21.0977 24.9312C21.0977 27.2076 22.9431 29.0531 25.2195 29.0531Z" fill="#D3D4D3"/>
</svg>
