<svg width="50" height="51" viewBox="0 0 50 51" fill="none" xmlns="http://www.w3.org/2000/svg">
<path d="M25.2197 4.99048C19.808 4.99048 14.6179 7.14096 10.7925 10.9665C6.96704 14.7921 4.81641 19.9821 4.81641 25.3938C4.81641 30.8054 6.96689 35.9955 10.7925 39.821C14.618 43.6464 19.808 45.797 25.2197 45.797C30.6314 45.797 35.8215 43.6465 39.6469 39.821C43.4723 35.9954 45.623 30.8054 45.623 25.3938C45.6172 19.9835 43.4648 14.7979 39.639 10.9744C35.8153 7.14882 30.6294 4.99641 25.2197 4.99048V4.99048ZM41.8049 23.5389H27.0745V8.80849C30.8345 9.23549 34.3396 10.9241 37.0135 13.6002C39.6895 16.2742 41.3782 19.779 41.8052 23.5392L41.8049 23.5389ZM23.3648 8.80849V23.5389H8.63441C9.06141 19.779 10.7501 16.2739 13.4261 13.5999C16.1001 10.9239 19.6049 9.23525 23.3651 8.80824L23.3648 8.80849ZM8.63441 27.2486H23.3648V41.979C19.6049 41.552 16.0998 39.8634 13.4258 37.1873C10.7498 34.5133 9.06118 31.0085 8.63417 27.2483L8.63441 27.2486ZM27.0745 41.979V27.2486H41.8049C41.3779 31.0085 39.6893 34.5136 37.0133 37.1876C34.3392 39.8636 30.8344 41.5523 27.0743 41.9793L27.0745 41.979Z" fill="#D3D4D3"/>
</svg>
