<svg width="50" height="50" viewBox="0 0 50 50" fill="none" xmlns="http://www.w3.org/2000/svg">
<path d="M34.926 16.0148C35.1192 15.8232 35.2725 15.5952 35.3771 15.3441C35.4817 15.0929 35.5356 14.8236 35.5356 14.5515C35.5356 14.2794 35.4817 14.0101 35.3771 13.7589C35.2725 13.5078 35.1192 13.2798 34.926 13.0882L26.6822 4.84448C26.4907 4.65132 26.2627 4.49799 26.0116 4.39336C25.7604 4.28873 25.491 4.23486 25.219 4.23486C24.9469 4.23486 24.6775 4.28873 24.4264 4.39336C24.1752 4.49799 23.9473 4.65132 23.7557 4.84448L15.512 13.0882C15.3188 13.2798 15.1655 13.5078 15.0608 13.7589C14.9562 14.0101 14.9023 14.2794 14.9023 14.5515C14.9023 14.8236 14.9562 15.0929 15.0608 15.3441C15.1655 15.5952 15.3188 15.8232 15.512 16.0148L23.158 23.6402V35.1609H19.0362C18.4896 35.1609 17.9654 35.378 17.5789 35.7645C17.1924 36.151 16.9752 36.6752 16.9752 37.2218C16.9752 37.7684 17.1924 38.2926 17.5789 38.6791C17.9654 39.0656 18.4896 39.2827 19.0362 39.2827H23.158V43.4046C23.158 43.9512 23.3752 44.4754 23.7617 44.8619C24.1482 45.2484 24.6724 45.4655 25.219 45.4655C25.7656 45.4655 26.2898 45.2484 26.6763 44.8619C27.0628 44.4754 27.2799 43.9512 27.2799 43.4046V39.2827H31.4018C31.9484 39.2827 32.4726 39.0656 32.8591 38.6791C33.2456 38.2926 33.4627 37.7684 33.4627 37.2218C33.4627 36.6752 33.2456 36.151 32.8591 35.7645C32.4726 35.378 31.9484 35.1609 31.4018 35.1609H27.2799V23.6402L34.926 16.0148ZM25.219 9.21367L30.5568 14.5515L25.219 19.8893L19.8812 14.5515L25.219 9.21367Z" fill="#D3D4D3"/>
</svg>
