<svg width="50" height="51" viewBox="0 0 50 51" fill="none" xmlns="http://www.w3.org/2000/svg">
<path d="M43.7672 29.441H37.5844C37.3131 29.4394 37.0442 29.4914 36.7931 29.5939C36.5421 29.6965 36.3137 29.8476 36.1211 30.0386L25.2187 40.9616L14.3164 30.0386C14.1238 29.8476 13.8954 29.6965 13.6443 29.5939C13.3932 29.4914 13.1244 29.4394 12.8531 29.441H6.67031C6.12372 29.441 5.59951 29.6581 5.21301 30.0446C4.82651 30.4311 4.60938 30.9553 4.60938 31.5019C4.60938 32.0485 4.82651 32.5727 5.21301 32.9592C5.59951 33.3457 6.12372 33.5628 6.67031 33.5628H12.0081L23.7555 45.3308C23.9471 45.5239 24.175 45.6773 24.4262 45.7819C24.6773 45.8865 24.9467 45.9404 25.2187 45.9404C25.4908 45.9404 25.7602 45.8865 26.0113 45.7819C26.2625 45.6773 26.4904 45.5239 26.682 45.3308L38.4293 33.5628H43.7672C44.3138 33.5628 44.838 33.3457 45.2245 32.9592C45.611 32.5727 45.8281 32.0485 45.8281 31.5019C45.8281 30.9553 45.611 30.4311 45.2245 30.0446C44.838 29.6581 44.3138 29.441 43.7672 29.441Z" fill="#D3D4D3"/>
<path d="M23.7569 37.0873C23.9485 37.2805 24.1764 37.4338 24.4276 37.5385C24.6787 37.6431 24.9481 37.697 25.2201 37.697C25.4922 37.697 25.7616 37.6431 26.0127 37.5385C26.2639 37.4338 26.4918 37.2805 26.6834 37.0873L39.049 24.7217C39.2412 24.5296 39.3936 24.3014 39.4976 24.0504C39.6016 23.7993 39.6551 23.5302 39.6551 23.2585C39.6551 22.9867 39.6016 22.7176 39.4976 22.4665C39.3936 22.2155 39.2412 21.9873 39.049 21.7952C38.8569 21.603 38.6287 21.4506 38.3777 21.3466C38.1266 21.2426 37.8575 21.1891 37.5858 21.1891C37.314 21.1891 37.0449 21.2426 36.7939 21.3466C36.5428 21.4506 36.3147 21.603 36.1225 21.7952L25.2201 32.7182L14.3178 21.7952C13.9297 21.4071 13.4034 21.1891 12.8545 21.1891C12.3057 21.1891 11.7793 21.4071 11.3913 21.7952C11.0032 22.1833 10.7852 22.7096 10.7852 23.2585C10.7852 23.8073 11.0032 24.3336 11.3913 24.7217L23.7569 37.0873Z" fill="#D3D4D3"/>
<path d="M25.218 17.0752C25.7646 17.0752 26.2888 17.2923 26.6753 17.6788C27.0618 18.0653 27.2789 18.5896 27.2789 19.1361C27.2789 19.6827 27.0618 20.207 26.6753 20.5935C26.2888 20.98 25.7646 21.1971 25.218 21.1971C24.6714 21.1971 24.1472 21.4142 23.7607 21.8007C23.3742 22.1872 23.157 22.7114 23.157 23.258C23.157 23.8046 23.3742 24.3288 23.7607 24.7153C24.1472 25.1018 24.6714 25.319 25.218 25.319C26.8577 25.319 28.4304 24.6676 29.5899 23.5081C30.7494 22.3486 31.4008 20.7759 31.4008 19.1361C31.4008 17.4964 30.7494 15.9237 29.5899 14.7642C28.4304 13.6047 26.8577 12.9533 25.218 12.9533C24.6714 12.9533 24.1472 12.7362 23.7607 12.3497C23.3742 11.9632 23.157 11.439 23.157 10.8924C23.157 10.3458 23.3742 9.8216 23.7607 9.4351C24.1472 9.0486 24.6714 8.83147 25.218 8.83147C25.7646 8.83147 26.2888 8.61433 26.6753 8.22783C27.0618 7.84133 27.2789 7.31713 27.2789 6.77053C27.2789 6.22394 27.0618 5.69973 26.6753 5.31323C26.2888 4.92673 25.7646 4.70959 25.218 4.70959C23.5782 4.70959 22.0056 5.361 20.8461 6.5205C19.6866 7.68 19.0352 9.25262 19.0352 10.8924C19.0352 12.5322 19.6866 14.1048 20.8461 15.2643C22.0056 16.4238 23.5782 17.0752 25.218 17.0752V17.0752Z" fill="#D3D4D3"/>
</svg>
