<svg width="50" height="50" viewBox="0 0 50 50" fill="none" xmlns="http://www.w3.org/2000/svg">
<path d="M39.6476 18.9611C39.6362 15.9054 38.6547 12.9321 36.8447 10.4701L39.1118 7.97633C39.3123 7.77961 39.4705 7.54397 39.5767 7.28388C39.6828 7.02379 39.7347 6.74475 39.729 6.46389C39.7234 6.18303 39.6604 5.90629 39.544 5.65065C39.4275 5.39502 39.26 5.16589 39.0518 4.97735C38.8435 4.78881 38.5989 4.64483 38.333 4.55425C38.0671 4.46368 37.7855 4.42842 37.5055 4.45064C37.2254 4.47287 36.9529 4.55211 36.7046 4.6835C36.4563 4.81488 36.2375 4.99565 36.0616 5.21468L34.0007 7.52293C31.5002 5.58436 28.4262 4.53229 25.2623 4.53229C22.0984 4.53229 19.0243 5.58436 16.5239 7.52293L14.463 5.21468C14.0968 4.79926 13.5805 4.54635 13.0278 4.51156C12.4751 4.47678 11.9312 4.66297 11.5158 5.02919C11.1004 5.39541 10.8475 5.91165 10.8127 6.46435C10.7779 7.01704 10.9641 7.56092 11.3304 7.97633L13.5768 10.4701C12.1378 12.4779 11.2385 14.8216 10.965 17.2766C10.6916 19.7316 11.053 22.2158 12.0149 24.4911C12.9767 26.7663 14.5066 28.7565 16.4581 30.271C18.4096 31.7855 20.7173 32.7735 23.1601 33.1404V35.4486H21.0992C20.5526 35.4486 20.0284 35.6658 19.6419 36.0522C19.2554 36.4388 19.0383 36.963 19.0383 37.5096C19.0383 38.0561 19.2554 38.5804 19.6419 38.9669C20.0284 39.3534 20.5526 39.5705 21.0992 39.5705H23.1601V43.6924C23.1601 44.239 23.3773 44.7632 23.7638 45.1497C24.1503 45.5362 24.6745 45.7533 25.2211 45.7533C25.7677 45.7533 26.2919 45.5362 26.6784 45.1497C27.0649 44.7632 27.282 44.239 27.282 43.6924V39.5705H29.3429C29.8895 39.5705 30.4137 39.3534 30.8002 38.9669C31.1867 38.5804 31.4039 38.0561 31.4039 37.5096C31.4039 36.963 31.1867 36.4388 30.8002 36.0522C30.4137 35.6658 29.8895 35.4486 29.3429 35.4486H27.282V33.2228C30.7126 32.7276 33.8503 31.0139 36.121 28.395C38.3917 25.7762 39.6436 22.4273 39.6476 18.9611ZM14.9164 18.9611C14.9164 16.923 15.5207 14.9307 16.653 13.2361C17.7853 11.5416 19.3947 10.2208 21.2776 9.44084C23.1606 8.6609 25.2325 8.45683 27.2314 8.85444C29.2303 9.25205 31.0664 10.2335 32.5076 11.6746C33.9487 13.1157 34.9301 14.9519 35.3277 16.9508C35.7254 18.9497 35.5213 21.0216 34.7414 22.9046C33.9614 24.7875 32.6406 26.3969 30.946 27.5292C29.2514 28.6614 27.2591 29.2658 25.2211 29.2658C22.4881 29.2658 19.8671 28.1801 17.9346 26.2476C16.002 24.3151 14.9164 21.6941 14.9164 18.9611Z" fill="#D3D4D3"/>
</svg>
