<svg width="50" height="51" viewBox="0 0 50 51" fill="none" xmlns="http://www.w3.org/2000/svg">
<path d="M39.6461 19.4232C39.6493 16.6572 38.8573 13.9485 37.3644 11.62C35.8716 9.29141 33.7407 7.44111 31.2259 6.28951C28.711 5.13791 25.918 4.73356 23.1798 5.12464C20.4416 5.51571 17.8735 6.68573 15.7815 8.49528C13.6895 10.3048 12.1619 12.6776 11.3805 15.331C10.5992 17.9844 10.5971 20.8064 11.3745 23.4609C12.1519 26.1155 13.676 28.4905 15.7653 30.3032C17.8546 32.1159 20.4209 33.2897 23.1586 33.6849V35.9107H21.0976C20.551 35.9107 20.0268 36.1278 19.6403 36.5143C19.2538 36.9008 19.0367 37.425 19.0367 37.9716C19.0367 38.5182 19.2538 39.0424 19.6403 39.4289C20.0268 39.8154 20.551 40.0325 21.0976 40.0325H23.1586V44.1544C23.1586 44.701 23.3757 45.2252 23.7622 45.6117C24.1487 45.9982 24.6729 46.2154 25.2195 46.2154C25.7661 46.2154 26.2903 45.9982 26.6768 45.6117C27.0633 45.2252 27.2805 44.701 27.2805 44.1544V40.0325H29.3414C29.888 40.0325 30.4122 39.8154 30.7987 39.4289C31.1852 39.0424 31.4023 38.5182 31.4023 37.9716C31.4023 37.425 31.1852 36.9008 30.7987 36.5143C30.4122 36.1278 29.888 35.9107 29.3414 35.9107H27.2805V33.6849C30.7111 33.1897 33.8488 31.4759 36.1194 28.8571C38.3901 26.2382 39.642 22.8894 39.6461 19.4232ZM14.9148 19.4232C14.9148 17.3851 15.5192 15.3928 16.6515 13.6982C17.7838 12.0036 19.3931 10.6828 21.2761 9.90289C23.159 9.12295 25.2309 8.91889 27.2299 9.31649C29.2288 9.7141 31.0649 10.6955 32.506 12.1367C33.9472 13.5778 34.9286 15.4139 35.3262 17.4128C35.7238 19.4117 35.5197 21.4837 34.7398 23.3666C33.9599 25.2495 32.6391 26.8589 30.9445 27.9912C29.2499 29.1235 27.2576 29.7279 25.2195 29.7279C22.4865 29.7279 19.8655 28.6422 17.933 26.7097C16.0005 24.7772 14.9148 22.1561 14.9148 19.4232Z" fill="#D3D4D3"/>
</svg>
