<svg width="50" height="50" viewBox="0 0 50 50" fill="none" xmlns="http://www.w3.org/2000/svg">
<path d="M45.6632 5.73715C45.4541 5.23357 45.0539 4.83338 44.5503 4.62425C44.3026 4.51864 44.0365 4.46263 43.7672 4.45937H33.4625C32.9159 4.45937 32.3917 4.67651 32.0052 5.06301C31.6187 5.44951 31.4016 5.97372 31.4016 6.52031C31.4016 7.0669 31.6187 7.59111 32.0052 7.97761C32.3917 8.36411 32.9159 8.58125 33.4625 8.58125H38.8003L31.1955 16.1861C28.3152 13.9253 24.7584 12.6986 21.0969 12.7031C17.836 12.7031 14.6483 13.6701 11.9369 15.4818C9.22556 17.2934 7.11232 19.8684 5.86442 22.8811C4.61652 25.8938 4.29001 29.2089 4.92618 32.4072C5.56236 35.6054 7.13264 38.5432 9.43846 40.849C11.7443 43.1548 14.6821 44.7251 17.8803 45.3613C21.0786 45.9975 24.3937 45.671 27.4064 44.4231C30.4191 43.1752 32.9941 41.0619 34.8057 38.3506C36.6174 35.6392 37.5844 32.4515 37.5844 29.1906C37.5889 25.529 36.3622 21.9723 34.1014 19.092L41.7062 11.4872V16.825C41.7062 17.3716 41.9234 17.8958 42.3099 18.2823C42.6964 18.6688 43.2206 18.8859 43.7672 18.8859C44.3138 18.8859 44.838 18.6688 45.2245 18.2823C45.611 17.8958 45.8281 17.3716 45.8281 16.825V6.52031C45.8249 6.25099 45.7688 5.98492 45.6632 5.73715ZM21.0969 41.5562C18.6512 41.5562 16.2604 40.831 14.2269 39.4722C12.1934 38.1135 10.6085 36.1822 9.67253 33.9227C8.73661 31.6632 8.49173 29.1769 8.96886 26.7782C9.44599 24.3795 10.6237 22.1762 12.3531 20.4468C14.0824 18.7174 16.2858 17.5397 18.6845 17.0626C21.0832 16.5855 23.5695 16.8303 25.829 17.7663C28.0885 18.7022 30.0198 20.2871 31.3785 22.3206C32.7373 24.3542 33.4625 26.7449 33.4625 29.1906C33.4625 32.4702 32.1597 35.6154 29.8407 37.9344C27.5217 40.2534 24.3764 41.5562 21.0969 41.5562Z" fill="#D3D4D3"/>
</svg>
