<svg width="50" height="51" viewBox="0 0 50 51" fill="none" xmlns="http://www.w3.org/2000/svg">
<path fill-rule="evenodd" clip-rule="evenodd" d="M39.6476 33.7759V4.92743C39.6476 3.78554 40.5615 2.86197 41.7072 2.86197C42.8453 2.86197 43.7688 3.7662 43.7688 4.92743V46.1356C43.7688 47.2775 42.8549 48.2011 41.7072 48.2011C40.5692 48.2011 39.6476 47.2968 39.6476 46.1356V37.8971H8.73352C7.59549 37.8971 6.67192 36.9832 6.67192 35.8355C6.67192 34.6975 7.60899 33.7759 8.73352 33.7759H19.0375C23.5896 33.7759 27.282 30.0836 27.282 25.5315C27.282 20.9793 23.5897 17.2871 19.0375 17.2871C14.4854 17.2871 10.7931 20.9793 10.7931 25.5315C10.7931 26.6695 9.87151 27.5931 8.73347 27.5931C7.59544 27.5931 6.67188 26.6695 6.67188 25.5315C6.67188 18.7012 12.2072 13.1658 19.0375 13.1658C25.8678 13.1658 31.4031 18.7012 31.4031 25.5315C31.4031 28.6982 30.213 31.5867 28.2537 33.7759L39.6476 33.7759Z" fill="#D3D4D3"/>
</svg>
