<svg width="50" height="50" viewBox="0 0 50 50" fill="none" xmlns="http://www.w3.org/2000/svg">
<path d="M37.5851 31.1766C37.0385 31.1766 36.5143 31.3937 36.1278 31.7802C35.7413 32.1667 35.5242 32.691 35.5242 33.2375C35.5242 35.7107 35.112 41.4813 31.4023 41.4813C28.4346 41.4813 27.2805 40.3272 27.2805 37.3594C27.7169 34.9363 28.5379 32.5986 29.7124 30.4347C31.7733 25.6945 34.0403 20.7895 31.897 17.4508C31.1129 16.458 30.0873 15.6828 28.9183 15.1993C27.7493 14.7158 26.4758 14.5402 25.2195 14.6891C24.0139 14.6807 22.8237 14.9606 21.7482 15.5055C20.6727 16.0505 19.743 16.8446 19.0367 17.8217V14.6891H21.0977C21.6442 14.6891 22.1685 14.472 22.555 14.0855C22.9415 13.699 23.1586 13.1748 23.1586 12.6282C23.1586 12.0816 22.9415 11.5574 22.555 11.1709C22.1685 10.7844 21.6442 10.5672 21.0977 10.5672H19.0367V6.44537C19.0367 5.89878 18.8196 5.37457 18.4331 4.98807C18.0466 4.60157 17.5224 4.38443 16.9758 4.38443C16.4292 4.38443 15.905 4.60157 15.5185 4.98807C15.132 5.37457 14.9148 5.89878 14.9148 6.44537V10.5672H12.8539C12.3073 10.5672 11.7831 10.7844 11.3966 11.1709C11.0101 11.5574 10.793 12.0816 10.793 12.6282C10.793 13.1748 11.0101 13.699 11.3966 14.0855C11.7831 14.472 12.3073 14.6891 12.8539 14.6891H14.9148V33.2375C14.9148 33.7841 15.132 34.3084 15.5185 34.6949C15.905 35.0814 16.4292 35.2985 16.9758 35.2985C17.5224 35.2985 18.0466 35.0814 18.4331 34.6949C18.8196 34.3084 19.0367 33.7841 19.0367 33.2375C19.0367 29.4866 20.1908 18.811 25.2195 18.811C26.9095 18.811 28.0636 19.1201 28.4346 19.6766C29.362 21.1398 27.3011 25.7151 25.9409 28.7447C24.4815 31.4164 23.5377 34.3388 23.1586 37.3594C23.042 38.4706 23.1751 39.5939 23.5481 40.6471C23.9212 41.7003 24.5248 42.6568 25.3149 43.4469C26.1049 44.237 27.0615 44.8406 28.1147 45.2136C29.1679 45.5867 30.2911 45.7198 31.4023 45.6032C36.5547 45.6032 39.6461 40.9867 39.6461 33.2375C39.6461 32.691 39.4289 32.1667 39.0424 31.7802C38.6559 31.3937 38.1317 31.1766 37.5851 31.1766Z" fill="#D3D4D3"/>
</svg>
