<svg width="50" height="51" viewBox="0 0 50 51" fill="none" xmlns="http://www.w3.org/2000/svg">
<path d="M45.0803 12.8549L40.6848 8.45927C40.5109 8.28731 40.3041 8.15013 40.078 8.05546L40.0471 8.04773V8.0458C39.8327 7.96078 39.6047 7.91634 39.3728 7.91634C39.1429 7.91634 38.913 7.96078 38.6985 8.0458L38.6695 8.05352V8.05546C38.4415 8.1482 38.2348 8.28731 38.0609 8.45927L33.6653 12.8549C32.962 13.5814 32.9717 14.7387 33.6865 15.4555C34.4034 16.1704 35.5588 16.18 36.2872 15.4767L37.5237 14.246V17.1055C37.5237 22.7744 32.9813 27.4733 27.0807 28.3023V14.2461L28.3173 15.4768C28.6631 15.8343 29.1385 16.0391 29.635 16.0429C30.1335 16.0468 30.6108 15.8517 30.9643 15.5C31.316 15.1483 31.5111 14.6692 31.5073 14.1726C31.5015 13.6741 31.2986 13.2008 30.9412 12.8549L26.534 8.45931C26.3601 8.28735 26.1533 8.15017 25.9253 8.05549L25.8964 8.04776V8.04583C25.6819 7.96081 25.452 7.91638 25.2201 7.91638C24.9882 7.91638 24.7603 7.96082 24.5458 8.04583L24.5168 8.05356L24.5149 8.05549C24.2888 8.15017 24.0821 8.28735 23.9082 8.45931L19.5126 12.8549C18.8093 13.5814 18.819 14.7387 19.5338 15.4555C20.2506 16.1704 21.408 16.18 22.1345 15.4768L23.371 14.246V28.3003C17.4702 27.4714 12.928 22.7743 12.928 17.1034V14.2459L14.1646 15.4766C14.893 16.1799 16.0503 16.1702 16.7652 15.4554C17.4801 14.7386 17.4917 13.5812 16.7884 12.8547L12.3812 8.45916C12.2073 8.2872 12.0006 8.14808 11.7745 8.05534L11.7416 8.04568C11.5272 7.96067 11.2973 7.91623 11.0673 7.91623C10.8355 7.91623 10.6075 7.96067 10.393 8.04568L10.3621 8.05341V8.05534C10.136 8.15002 9.92929 8.2872 9.75538 8.45916L5.3598 12.8547C4.63527 13.5793 4.63527 14.754 5.3598 15.4786C6.08433 16.2012 7.25906 16.2012 7.98364 15.4766L9.21248 14.2459V17.1054C9.21248 24.8126 15.4106 31.177 23.3652 32.0445V35.7291L20.5327 35.731C19.5086 35.731 18.6778 36.5618 18.6778 37.5859C18.6778 38.6099 19.5086 39.4407 20.5327 39.4407H23.3652V41.1429C23.3652 42.1669 24.196 42.9978 25.22 42.9978C26.244 42.9978 27.0749 42.1669 27.0749 41.1429V39.4407H29.9074C30.9314 39.4407 31.7622 38.6099 31.7622 37.5859C31.7622 36.5618 30.9314 35.731 29.9074 35.731H27.0749V32.0465C35.0294 31.1809 41.2276 24.8146 41.2276 17.1073V14.2458L42.4564 15.4766C43.1809 16.2011 44.3557 16.2011 45.0802 15.4785C45.428 15.1307 45.6232 14.6574 45.6232 14.1666C45.6232 13.6739 45.4281 13.2025 45.0802 12.8547L45.0803 12.8549Z" fill="#D3D4D3"/>
</svg>
