<svg width="50" height="50" viewBox="0 0 50 50" fill="none" xmlns="http://www.w3.org/2000/svg">
<path d="M43.7672 29.0407H39.6453V8.43137H43.7672C44.3138 8.43137 44.838 8.21423 45.2245 7.82773C45.611 7.44123 45.8281 6.91702 45.8281 6.37043C45.8281 5.82384 45.611 5.29963 45.2245 4.91313C44.838 4.52663 44.3138 4.30949 43.7672 4.30949H37.5844C37.0378 4.30949 36.5136 4.52663 36.1271 4.91313C35.7406 5.29963 35.5234 5.82384 35.5234 6.37043V16.6751H27.2797V6.37043C27.2797 5.82384 27.0625 5.29963 26.676 4.91313C26.2895 4.52663 25.7653 4.30949 25.2187 4.30949C24.6721 4.30949 24.1479 4.52663 23.7614 4.91313C23.3749 5.29963 23.1578 5.82384 23.1578 6.37043V16.6751H14.9141V6.37043C14.9141 5.82384 14.6969 5.29963 14.3104 4.91313C13.9239 4.52663 13.3997 4.30949 12.8531 4.30949H6.67031C6.12372 4.30949 5.59951 4.52663 5.21301 4.91313C4.82651 5.29963 4.60938 5.82384 4.60938 6.37043C4.60938 6.91702 4.82651 7.44123 5.21301 7.82773C5.59951 8.21423 6.12372 8.43137 6.67031 8.43137H10.7922V29.0407H6.67031C6.12372 29.0407 5.59951 29.2579 5.21301 29.6444C4.82651 30.0309 4.60938 30.5551 4.60938 31.1017C4.60938 31.6483 4.82651 32.1725 5.21301 32.559C5.59951 32.9455 6.12372 33.1626 6.67031 33.1626H12.8531C13.3997 33.1626 13.9239 32.9455 14.3104 32.559C14.6969 32.1725 14.9141 31.6483 14.9141 31.1017V20.797H23.1578V29.3293C21.215 29.8309 19.5219 31.0238 18.3958 32.6845C17.2697 34.3451 16.7879 36.3595 17.0407 38.35C17.2935 40.3405 18.2636 42.1704 19.7691 43.4968C21.2747 44.8232 23.2123 45.555 25.2187 45.555C27.2252 45.555 29.1628 44.8232 30.6683 43.4968C32.1739 42.1704 33.144 40.3405 33.3968 38.35C33.6496 36.3595 33.1678 34.3451 32.0417 32.6845C30.9156 31.0238 29.2224 29.8309 27.2797 29.3293V20.797H35.5234V31.1017C35.5234 31.6483 35.7406 32.1725 36.1271 32.559C36.5136 32.9455 37.0378 33.1626 37.5844 33.1626H43.7672C44.3138 33.1626 44.838 32.9455 45.2245 32.559C45.611 32.1725 45.8281 31.6483 45.8281 31.1017C45.8281 30.5551 45.611 30.0309 45.2245 29.6444C44.838 29.2579 44.3138 29.0407 43.7672 29.0407ZM29.3406 37.2845C29.3406 38.0997 29.0989 38.8966 28.646 39.5745C28.193 40.2523 27.5493 40.7806 26.7961 41.0926C26.0429 41.4046 25.2142 41.4862 24.4146 41.3271C23.615 41.1681 22.8806 40.7755 22.3041 40.1991C21.7277 39.6226 21.3351 38.8882 21.1761 38.0886C21.017 37.2891 21.0986 36.4603 21.4106 35.7071C21.7226 34.9539 22.2509 34.3102 22.9288 33.8573C23.6066 33.4043 24.4035 33.1626 25.2187 33.1626C26.3119 33.1626 27.3603 33.5969 28.1333 34.3699C28.9063 35.1429 29.3406 36.1913 29.3406 37.2845Z" fill="#D3D4D3"/>
</svg>
