<svg width="50" height="50" viewBox="0 0 50 50" fill="none" xmlns="http://www.w3.org/2000/svg">
<path d="M43.2805 14.4267C43.2805 13.8801 43.0633 13.3559 42.6768 12.9694C42.2903 12.5829 41.7661 12.3657 41.2195 12.3657C40.6729 12.3657 40.1487 12.5829 39.7622 12.9694C39.3757 13.3559 39.1586 13.8801 39.1586 14.4267C39.1586 18.2528 37.6386 21.9223 34.9331 24.6278C32.2276 27.3333 28.5582 28.8532 24.732 28.8532C20.9059 28.8532 17.2364 27.3333 14.5309 24.6278C11.8254 21.9223 10.3055 18.2528 10.3055 14.4267C10.3055 13.8801 10.0883 13.3559 9.70183 12.9694C9.31533 12.5829 8.79112 12.3657 8.24453 12.3657C7.69794 12.3657 7.17373 12.5829 6.78723 12.9694C6.40073 13.3559 6.18359 13.8801 6.18359 14.4267C6.18576 18.9876 7.86831 23.3879 10.9098 26.7868C13.9512 30.1856 18.1384 32.3447 22.6711 32.8514V35.036H20.6102C20.0636 35.036 19.5393 35.2532 19.1528 35.6397C18.7663 36.0262 18.5492 36.5504 18.5492 37.097C18.5492 37.6436 18.7663 38.1678 19.1528 38.5543C19.5393 38.9408 20.0636 39.1579 20.6102 39.1579H22.6711V43.2798C22.6711 43.8264 22.8882 44.3506 23.2747 44.7371C23.6612 45.1236 24.1854 45.3407 24.732 45.3407C25.2786 45.3407 25.8028 45.1236 26.1893 44.7371C26.5758 44.3506 26.793 43.8264 26.793 43.2798V39.1579H28.8539C29.4005 39.1579 29.9247 38.9408 30.3112 38.5543C30.6977 38.1678 30.9148 37.6436 30.9148 37.097C30.9148 36.5504 30.6977 36.0262 30.3112 35.6397C29.9247 35.2532 29.4005 35.036 28.8539 35.036H26.793V32.8514C31.3257 32.3447 35.5128 30.1856 38.5543 26.7868C41.5957 23.3879 43.2783 18.9876 43.2805 14.4267Z" fill="white"/>
<path d="M24.7305 24.7314C26.7685 24.7314 28.7608 24.1271 30.4554 22.9948C32.15 21.8625 33.4708 20.2531 34.2507 18.3702C35.0307 16.4873 35.2348 14.4153 34.8371 12.4164C34.4395 10.4175 33.4581 8.58138 32.017 7.14025C30.5758 5.69911 28.7397 4.71768 26.7408 4.32008C24.7419 3.92247 22.67 4.12654 20.787 4.90647C18.9041 5.68641 17.2947 7.00719 16.1624 8.70178C15.0301 10.3964 14.4258 12.3887 14.4258 14.4268C14.4258 17.1597 15.5114 19.7808 17.444 21.7133C19.3765 23.6458 21.9975 24.7314 24.7305 24.7314ZM24.7305 8.24395C25.9533 8.24395 27.1487 8.60656 28.1654 9.28594C29.1822 9.96532 29.9747 10.9309 30.4426 12.0607C30.9106 13.1905 31.033 14.4336 30.7945 15.633C30.5559 16.8323 29.9671 17.934 29.1024 18.7987C28.2377 19.6633 27.136 20.2522 25.9367 20.4908C24.7373 20.7293 23.4942 20.6069 22.3644 20.1389C21.2346 19.671 20.269 18.8785 19.5896 17.8617C18.9103 16.845 18.5477 15.6496 18.5477 14.4268C18.5477 12.787 19.1991 11.2144 20.3586 10.0549C21.5181 8.89535 23.0907 8.24395 24.7305 8.24395Z" fill="white"/>
</svg>
