<svg width="50" height="50" viewBox="0 0 50 50" fill="none" xmlns="http://www.w3.org/2000/svg">
<path d="M37.0969 14.4268H30.0691L35.2626 9.6866C35.4817 9.5107 35.6624 9.29189 35.7938 9.0436C35.9252 8.7953 36.0044 8.52277 36.0267 8.24273C36.0489 7.9627 36.0136 7.68108 35.9231 7.41516C35.8325 7.14925 35.6885 6.90466 35.5 6.69642C35.3114 6.48818 35.0823 6.32068 34.8267 6.20421C34.571 6.08775 34.2943 6.02477 34.0134 6.01915C33.7326 6.01353 33.4535 6.06538 33.1934 6.17153C32.9333 6.27768 32.6977 6.43588 32.501 6.63641L26.7922 11.83V6.18301C26.7922 5.63641 26.575 5.11221 26.1885 4.7257C25.802 4.3392 25.2778 4.12207 24.7312 4.12207C24.1846 4.12207 23.6604 4.3392 23.2739 4.7257C22.8874 5.11221 22.6703 5.63641 22.6703 6.18301V11.83L16.9615 6.63641C16.5518 6.30738 16.0318 6.14729 15.508 6.18886C14.9842 6.23044 14.496 6.47055 14.1433 6.86009C13.7906 7.24963 13.6 7.75919 13.6105 8.28457C13.6211 8.80995 13.8319 9.31148 14.1999 9.6866L19.3934 14.4268H12.3656C11.819 14.4268 11.2948 14.6439 10.9083 15.0304C10.5218 15.4169 10.3047 15.9411 10.3047 16.4877C10.3047 17.0343 10.5218 17.5585 10.9083 17.945C11.2948 18.3315 11.819 18.5486 12.3656 18.5486H19.3934L14.1999 23.2888C13.9205 23.573 13.7296 23.9321 13.6502 24.3226C13.5708 24.7131 13.6063 25.1183 13.7524 25.489C13.8985 25.8598 14.149 26.1802 14.4735 26.4115C14.798 26.6429 15.1826 26.7751 15.5807 26.7924C16.0915 26.791 16.5835 26.6001 16.9615 26.2565L22.6703 21.1454V35.0361H20.6094C20.0628 35.0361 19.5386 35.2533 19.1521 35.6397C18.7656 36.0263 18.5484 36.5505 18.5484 37.0971C18.5484 37.6436 18.7656 38.1679 19.1521 38.5544C19.5386 38.9409 20.0628 39.158 20.6094 39.158H22.6703V43.2799C22.6703 43.8265 22.8874 44.3507 23.2739 44.7372C23.6604 45.1237 24.1846 45.3408 24.7312 45.3408C25.2778 45.3408 25.802 45.1237 26.1885 44.7372C26.575 44.3507 26.7922 43.8265 26.7922 43.2799V39.158H28.8531C29.3997 39.158 29.9239 38.9409 30.3104 38.5544C30.6969 38.1679 30.9141 37.6436 30.9141 37.0971C30.9141 36.5505 30.6969 36.0263 30.3104 35.6397C29.9239 35.2533 29.3997 35.0361 28.8531 35.0361H26.7922V21.1454L32.501 26.339C32.8789 26.6825 33.371 26.8735 33.8818 26.8748C34.2973 26.8737 34.7028 26.7471 35.0451 26.5114C35.3874 26.2758 35.6504 25.9422 35.7997 25.5545C35.949 25.1667 35.9776 24.7428 35.8818 24.3385C35.7859 23.9342 35.5701 23.5683 35.2626 23.2888L30.0691 18.5486H37.0969C37.6435 18.5486 38.1677 18.3315 38.5542 17.945C38.9407 17.5585 39.1578 17.0343 39.1578 16.4877C39.1578 15.9411 38.9407 15.4169 38.5542 15.0304C38.1677 14.6439 37.6435 14.4268 37.0969 14.4268Z" fill="white"/>
</svg>
